<svg width="45" height="46" viewBox="0 0 45 46" fill="none" xmlns="http://www.w3.org/2000/svg">
<path d="M2.16675 2.16675H5.79176C8.04176 2.16675 9.81258 4.10425 9.62508 6.33341L7.89591 27.0834C7.60425 30.4792 10.2917 33.3959 13.7084 33.3959H35.8959C38.8959 33.3959 41.5209 30.9376 41.7501 27.9584L42.8751 12.3334C43.1251 8.87509 40.5001 6.06257 37.0209 6.06257H10.1251M16.7501 14.6667H41.7501M34.4584 41.2292C34.4584 42.6675 33.2925 43.8334 31.8542 43.8334C30.416 43.8334 29.2501 42.6675 29.2501 41.2292C29.2501 39.791 30.416 38.6251 31.8542 38.6251C33.2925 38.6251 34.4584 39.791 34.4584 41.2292ZM17.7917 41.2292C17.7917 42.6675 16.6258 43.8334 15.1876 43.8334C13.7493 43.8334 12.5834 42.6675 12.5834 41.2292C12.5834 39.791 13.7493 38.6251 15.1876 38.6251C16.6258 38.6251 17.7917 39.791 17.7917 41.2292Z" stroke="white" stroke-width="3" stroke-miterlimit="10" stroke-linecap="round" stroke-linejoin="round"/>
</svg>
