<svg width="30" height="30" viewBox="0 0 30 30" fill="none" xmlns="http://www.w3.org/2000/svg">
<path d="M25.7122 20.7277V5.67535C25.7122 2.46748 23.7011 2.02331 21.6653 2.57852L13.9665 4.67597C12.5599 5.05845 11.5976 6.16887 11.5976 7.7728V23.2816M25.7122 20.7277C25.7122 22.8537 23.9887 24.5771 21.8628 24.5771C19.7368 24.5771 18.0133 22.8537 18.0133 20.7277C18.0133 18.6017 19.7368 16.8782 21.8628 16.8782C23.9887 16.8782 25.7122 18.6017 25.7122 20.7277ZM11.5976 11.7456L25.7122 7.89618M11.5976 23.294C11.5976 25.4199 9.87412 27.1434 7.74813 27.1434C5.62214 27.1434 3.89868 25.4199 3.89868 23.294C3.89868 21.168 5.62214 19.4445 7.74813 19.4445C9.87412 19.4445 11.5976 21.168 11.5976 23.294Z" stroke="#EEEEEE" stroke-width="1.5" stroke-linecap="round" stroke-linejoin="round"/>
</svg>
