<svg width="48" height="48" viewBox="0 0 48 48" fill="none" xmlns="http://www.w3.org/2000/svg">
<path d="M20.625 41.775V6.225C20.625 2.85 19.2 1.5 15.6 1.5H6.525C2.925 1.5 1.5 2.85 1.5 6.225V41.775C1.5 45.15 2.925 46.5 6.525 46.5H15.6C19.2 46.5 20.625 45.15 20.625 41.775Z" stroke="#292D32" stroke-width="3" stroke-linecap="round" stroke-linejoin="round"/>
<path d="M46.5 41.775V6.225C46.5 2.85 45.075 1.5 41.475 1.5H32.4C28.825 1.5 27.375 2.85 27.375 6.225V41.775C27.375 45.15 28.8 46.5 32.4 46.5H41.475C45.075 46.5 46.5 45.15 46.5 41.775Z" stroke="#292D32" stroke-width="3" stroke-linecap="round" stroke-linejoin="round"/>
</svg>
