<svg width="46" height="46" viewBox="0 0 46 46" fill="none" xmlns="http://www.w3.org/2000/svg">
<path d="M22.8333 43.6667C28.25 43.6667 33.1667 41.6042 36.875 38.2083C36.6667 36.25 35.4167 34.3333 33.1875 32.8333C27.5208 29.0417 18.1875 29.0417 12.4792 32.8333C10.25 34.3333 9 36.25 8.79167 38.2083C12.5 41.6042 17.4167 43.6667 22.8333 43.6667ZM22.8333 43.6667C34.3393 43.6667 43.6667 34.3393 43.6667 22.8333C43.6667 11.3274 34.3393 2 22.8333 2C11.3274 2 2 11.3274 2 22.8333C2 34.3393 11.3274 43.6667 22.8333 43.6667ZM23.0833 24.4583C22.9375 24.4375 22.75 24.4375 22.5833 24.4583C18.9167 24.3333 16 21.3333 16 17.6458C16 13.875 19.0417 10.8125 22.8333 10.8125C26.6042 10.8125 29.6667 13.875 29.6667 17.6458C29.6458 21.3333 26.75 24.3333 23.0833 24.4583Z" stroke="white" stroke-width="3" stroke-linecap="round" stroke-linejoin="round"/>
</svg>
