<svg width="38" height="30" viewBox="0 0 38 30" fill="none" xmlns="http://www.w3.org/2000/svg">
<path d="M28.9999 8.33331C31.9666 12.2833 31.9666 17.7166 28.9999 21.6666M32.0499 4.16664C36.8666 10.5833 36.8666 19.4166 32.0499 25.8333M2.33325 11.6666V18.3333C2.33325 21.6666 3.99992 23.3333 7.33325 23.3333H9.71659C10.3333 23.3333 10.9499 23.5166 11.4833 23.8333L16.3499 26.8833C20.5499 29.5166 23.9999 27.6 23.9999 22.65V7.34997C23.9999 2.38331 20.5499 0.483308 16.3499 3.11664L11.4833 6.16664C10.9499 6.48331 10.3333 6.66664 9.71659 6.66664H7.33325C3.99992 6.66664 2.33325 8.33331 2.33325 11.6666Z" stroke="#292D32" stroke-width="3" stroke-linecap="round"/>
</svg>
