<svg width="46" height="46" viewBox="0 0 46 46" fill="none" xmlns="http://www.w3.org/2000/svg">
<path d="M37.7084 36.8959L33.2501 28.0001L28.7917 36.8959M29.6042 35.3125H36.9376M16.7709 10.1875H8.31257M12.5209 8.77088V10.1875M14.6459 10.1668C14.6459 13.8126 11.7918 16.7709 8.29175 16.7709M16.7709 16.7709C15.2501 16.7709 13.8751 15.9584 12.9168 14.6667M2.16675 29.2501C2.16675 37.3126 8.68758 43.8334 16.7501 43.8334L14.5626 40.1876M43.8334 16.7501C43.8334 8.68758 37.3126 2.16675 29.2501 2.16675L31.4376 5.81258M33.2501 43.8334C27.4167 43.8334 22.6667 39.1042 22.6667 33.25C22.6667 27.4167 27.3959 22.6668 33.2501 22.6668C39.0834 22.6668 43.8334 27.3959 43.8334 33.25C43.8334 39.1042 39.1042 43.8334 33.2501 43.8334ZM8.45842 2.16675H16.6251C20.9376 2.16675 23.0209 4.25012 22.9168 8.45846V16.6251C23.0209 20.9376 20.9376 23.021 16.6251 22.9168H8.45842C4.25009 23.0001 2.16675 20.9167 2.16675 16.6042V8.4376C2.16675 4.2501 4.25009 2.16675 8.45842 2.16675Z" stroke="white" stroke-width="3" stroke-linecap="round" stroke-linejoin="round"/>
</svg>
